<svg
  xmlns="http://www.w3.org/2000/svg"
  version="1.1"
  xmlns:xlink="http://www.w3.org/1999/xlink"
  width="30"
  height="30"
  x="0"
  y="0"
  viewBox="0 0 512 512"
  style="enable-background: new 0 0 512 512"
  xml:space="preserve"
>
  <g>
    <defs>
      <linearGradient id="a" x1="201.679" x2="201.679" y1="336.1" y2="165.656" gradientUnits="userSpaceOnUse">
        <stop offset=".322" stop-color="#a163f5"></stop>
        <stop offset=".466" stop-color="#b074ee"></stop>
        <stop offset=".752" stop-color="#d8a1dd"></stop>
        <stop offset=".898" stop-color="#efbad3"></stop>
      </linearGradient>
      <linearGradient xlink:href="#a" id="b" x1="164.561" x2="164.561" y1="336.1" y2="165.656"></linearGradient>
      <linearGradient xlink:href="#a" id="c" x1="87.486" x2="87.486" y1="336.1" y2="165.656"></linearGradient>
      <linearGradient xlink:href="#a" id="d" x1="255.998" x2="255.998" y1="336.1" y2="165.656"></linearGradient>
    </defs>
    <path
      d="M202.085 150.124c-1.957.845-3.911 1.74-5.808 2.659a6 6 0 1 0 5.235 10.8 133.19 133.19 0 0 1 5.329-2.439 6 6 0 0 0-4.756-11.018Z"
      style="fill: url(#a)"
      fill=""
    ></path>
    <path
      d="M179.121 162.609a135.546 135.546 0 0 0-37.435 37.15 6 6 0 1 0 9.96 6.693 123.593 123.593 0 0 1 34.145-33.867 6 6 0 0 0-6.67-9.976Z"
      style="fill: url(#b)"
      fill=""
    ></path>
    <path
      d="M69.758 471.8a17.729 17.729 0 1 0 17.728-17.728A17.748 17.748 0 0 0 69.758 471.8Zm23.457 0a5.729 5.729 0 1 1-5.729-5.728 5.734 5.734 0 0 1 5.729 5.728Z"
      style="fill: url(#c)"
      fill=""
    ></path>
    <path
      d="M475.442 242H462.81C444.509 162.133 373 102.915 287 94.246V74.01a38.375 38.375 0 0 0 15.3-30.365 37.485 37.485 0 1 0-74.97 0c0 12.48 5.669 23.548 15.669 30.365v20.237C156 102.917 84.635 162.14 66.334 242H54.125c-12.249 0-22.663 9.561-23.032 21.8A22.539 22.539 0 0 0 53.7 287h1.173l3.9 21.114A25.528 25.528 0 0 0 83.906 329h68.229a87.6 87.6 0 0 0-19.8 11.2c-.131.1-.259.2-.381.313l-12.126 10.795a41.517 41.517 0 0 1-15.676 8.735l-.237-.888A10.068 10.068 0 0 0 94.369 352h-70.43a10.182 10.182 0 0 0-9.633 12.871l37.213 133.7A10.129 10.129 0 0 0 61.151 506h74.524a10.112 10.112 0 0 0 9.565-13.034l-9.865-32.378L171 438.055a21.132 21.132 0 0 1 15.394-1.991c.124.031.249.056.375.079l73.209 13.479a94.948 94.948 0 0 0 10.044 1.269 92.563 92.563 0 0 0 58.754-16.321l117.437-80.633a6 6 0 0 0 1.744-8.041A35.263 35.263 0 0 0 421.678 329h22.949a25.629 25.629 0 0 0 25.019-20.329L474.152 287h.868c12.249 0 22.663-9.561 23.032-21.8a22.54 22.54 0 0 0-22.61-23.2ZM239.085 43.645a25.488 25.488 0 1 1 25.487 25.487 25.516 25.516 0 0 1-25.487-25.487ZM275 79.783v13.592c-4-.149-6.668-.231-10-.231s-7 .082-10 .231V79.783a36.869 36.869 0 0 0 10 1.349 42.967 42.967 0 0 0 10-1.349Zm-10.428 25.361c89.3 0 166.236 57.124 185.9 136.856H78.67c19.669-79.726 96.622-136.856 185.902-136.856ZM62.671 494l-36.1-130H93l40 130ZM434.2 347.627l-112.219 77.05a80.566 80.566 0 0 1-51.094 14.245 82.667 82.667 0 0 1-8.753-1.106l-73.014-13.444a33.075 33.075 0 0 0-24.111 3.274 5.957 5.957 0 0 0-.278.164l-33.026 20.879-23.985-77.167a53.532 53.532 0 0 0 20.087-11.249l11.938-10.627a74.747 74.747 0 0 1 77.6-7.452l5.022 2.43a64.268 64.268 0 0 0 27.82 6.376h48.7a30.261 30.261 0 0 1 29.547 23.9l-34.609-1.566a211.488 211.488 0 0 0-38.513 1.778A6 6 0 0 0 256.959 387a199.738 199.738 0 0 1 36.325-1.679l41.542 1.88c.091 0 .182.007.272.007a6 6 0 0 0 6-6c0-.778-.025-1.55-.067-2.318l65.564-35.3a23.311 23.311 0 0 1 27.605 4.037ZM217.165 329h87.786l-18.389 10h-36.375a52.2 52.2 0 0 1-22.594-5.179l-5.023-2.429q-2.676-1.292-5.405-2.392Zm106.249 17.886a42.072 42.072 0 0 0-14.123-6.589l10.384-5.646c.048-.026.1-.053.142-.08 7.981-4.626 18.117-4.411 26.445 0Zm45.486-10.878c6.225-3.112 14-.727 19.212 3.913l-49.6 26.732a42.232 42.232 0 0 0-6.061-11ZM393.814 329h19.851a35.345 35.345 0 0 0-12.769 4.024l-1.768.954a32.206 32.206 0 0 0-5.314-4.978Zm81.628-54H156a6 6 0 0 0 0 12h305.9l-4 19.231A13.58 13.58 0 0 1 444.627 317H83.906a13.526 13.526 0 0 1-13.327-11.064L67.078 287H122a6 6 0 0 0 0-12H53.928a10.726 10.726 0 0 1-10.846-10.449A10.531 10.531 0 0 1 53.7 254h421.517a10.725 10.725 0 0 1 10.845 10.449A10.53 10.53 0 0 1 475.442 275Z"
      style="fill: url(#d)"
      fill=""
    ></path>
  </g>
</svg>
