<svg
  xmlns="http://www.w3.org/2000/svg"
  version="1.1"
  xmlns:xlink="http://www.w3.org/1999/xlink"
  width="30"
  height="30"
  x="0"
  y="0"
  viewBox="0 0 512 512"
  style="enable-background: new 0 0 512 512"
  xml:space="preserve"
  class=""
>
  <g>
    <circle cx="256" cy="256" r="240" fill="#555a6e" opacity="1" data-original="#555a6e" class=""></circle>
    <circle cx="256" cy="256" r="192" fill="#463c4b" opacity="1" data-original="#463c4b"></circle>
    <path
      fill="#a5c3dc"
      d="M240 448h48V64h-48C133.961 64 48 149.961 48 256s85.961 192 192 192z"
      opacity="1"
      data-original="#a5c3dc"
    ></path>
    <path
      fill="#d7e6f0"
      d="M240 432h48V80h-48c-97.202 0-176 78.798-176 176s78.798 176 176 176z"
      opacity="1"
      data-original="#d7e6f0"
    ></path>
    <circle cx="96" cy="256" r="32" fill="#ffd205" opacity="1" data-original="#ffd205"></circle>
    <circle cx="112" cy="224" r="32" fill="#ffd205" opacity="1" data-original="#ffd205"></circle>
    <circle cx="128" cy="192" r="32" fill="#faa019" opacity="1" data-original="#faa019"></circle>
    <circle cx="144" cy="160" r="32" fill="#ffd205" opacity="1" data-original="#ffd205"></circle>
    <circle cx="112" cy="288" r="32" fill="#faa019" opacity="1" data-original="#faa019"></circle>
    <circle cx="128" cy="320" r="32" fill="#ffd205" opacity="1" data-original="#ffd205"></circle>
    <circle cx="144" cy="352" r="32" fill="#faa019" opacity="1" data-original="#faa019"></circle>
    <path
      fill="#f57828"
      d="M288 448c8.837 0 16-7.163 16-16V80c0-8.837-7.163-16-16-16-106.039 0-192 85.961-192 192s85.961 192 192 192z"
      opacity="1"
      data-original="#f57828"
      class=""
    ></path>
    <circle cx="263.711" cy="156.678" r="13.333" fill="#faa019" opacity="1" data-original="#faa019"></circle>
    <circle cx="249.044" cy="179.344" r="4" fill="#faa019" opacity="1" data-original="#faa019"></circle>
    <circle cx="238.667" cy="361.333" r="4" fill="#faa019" opacity="1" data-original="#faa019"></circle>
    <circle cx="166.667" cy="340" r="4" fill="#faa019" opacity="1" data-original="#faa019"></circle>
    <circle cx="270.667" cy="406.667" r="4" fill="#faa019" opacity="1" data-original="#faa019"></circle>
    <circle cx="241.333" cy="132" r="4" fill="#faa019" opacity="1" data-original="#faa019"></circle>
    <circle cx="170.667" cy="186.667" r="8" fill="#faa019" opacity="1" data-original="#faa019"></circle>
    <circle cx="269.044" cy="215.344" r="8" fill="#faa019" opacity="1" data-original="#faa019"></circle>
    <circle cx="170.667" cy="317.333" r="8" fill="#faa019" opacity="1" data-original="#faa019"></circle>
    <circle cx="384" cy="256" r="80" fill="#a5c3dc" opacity="1" data-original="#a5c3dc"></circle>
    <circle cx="384" cy="256" r="64" fill="#f28a39" opacity="1" data-original="#f28a39"></circle>
    <path
      fill="#d26e28"
      d="M360 296c0-35.346 28.654-64 64-64a63.874 63.874 0 0 1 20.594 3.406C436.018 210.167 412.138 192 384 192c-35.346 0-64 28.654-64 64 0 28.139 18.167 52.018 43.406 60.594A63.874 63.874 0 0 1 360 296z"
      opacity="1"
      data-original="#d26e28"
    ></path>
    <path
      fill="#d7e6f0"
      d="M312 264a8 8 0 0 1-8-8c0-44.112 35.888-80 80-80a8 8 0 0 1 0 16c-35.29 0-64 28.71-64 64a8 8 0 0 1-8 8z"
      opacity="1"
      data-original="#d7e6f0"
    ></path>
    <circle cx="420" cy="252" r="12" fill="#d26e28" opacity="1" data-original="#d26e28"></circle>
    <circle cx="356" cy="244" r="12" fill="#a55023" opacity="1" data-original="#a55023"></circle>
    <circle cx="396" cy="300" r="4" fill="#d26e28" opacity="1" data-original="#d26e28"></circle>
    <circle cx="396" cy="204" r="4" fill="#a55023" opacity="1" data-original="#a55023"></circle>
    <circle cx="360" cy="392" r="56" fill="#a5c3dc" opacity="1" data-original="#a5c3dc"></circle>
    <path
      fill="#d7e6f0"
      d="M312 400a8 8 0 0 1-8-8c0-30.879 25.121-56 56-56a8 8 0 0 1 0 16c-22.056 0-40 17.944-40 40a8 8 0 0 1-8 8z"
      opacity="1"
      data-original="#d7e6f0"
    ></path>
    <circle cx="360" cy="392" r="40" fill="#ffd23c" opacity="1" data-original="#ffd23c"></circle>
    <path
      fill="#faa019"
      d="M344 416c0-22.092 17.909-40 40-40 4.782 0 9.367.842 13.618 2.382C392.047 362.995 377.309 352 360 352c-22.091 0-40 17.908-40 40 0 17.309 10.996 32.047 26.382 37.618A39.902 39.902 0 0 1 344 416z"
      opacity="1"
      data-original="#faa019"
    ></path>
    <circle cx="360" cy="120" r="56" fill="#a5c3dc" opacity="1" data-original="#a5c3dc"></circle>
    <path
      fill="#d7e6f0"
      d="M312 128a8 8 0 0 1-8-8c0-30.879 25.121-56 56-56a8 8 0 0 1 0 16c-22.056 0-40 17.944-40 40a8 8 0 0 1-8 8z"
      opacity="1"
      data-original="#d7e6f0"
    ></path>
    <circle cx="360" cy="120" r="40" fill="#f04b37" opacity="1" data-original="#f04b37"></circle>
    <path
      fill="#e1322d"
      d="M344 144c0-22.092 17.909-40 40-40 4.782 0 9.367.842 13.618 2.382C392.047 90.995 377.309 80 360 80c-22.091 0-40 17.908-40 40 0 17.309 10.996 32.047 26.382 37.618A39.902 39.902 0 0 1 344 144z"
      opacity="1"
      data-original="#e1322d"
    ></path>
  </g>
</svg>
