<svg
  xmlns="http://www.w3.org/2000/svg"
  version="1.1"
  xmlns:xlink="http://www.w3.org/1999/xlink"
  width="30"
  height="30"
  x="0"
  y="0"
  viewBox="0 0 512 512"
  style="enable-background: new 0 0 512 512"
  xml:space="preserve"
>
  <g>
    <path
      fill="#f5f8f9"
      d="M504.5 256c0 63.643-23.925 121.698-63.271 165.661 0 0-2.952 2.669-4.372 4.179-22.775 24.207-50.617 40.7-81.431 54.351-30.508 13.515-63.922 20.255-99.426 20.255C118.757 500.447 13.936 393.243 13.936 256c0-66.641 20.958-127.056 63.66-171.681 4.272-4.464 12.138-13.005 12.138-13.005C133.769 31.645 192.065 7.5 256 7.5c137.243 0 248.5 111.257 248.5 248.5z"
      opacity="1"
      data-original="#f5f8f9"
    ></path>
    <path
      fill="#deecf1"
      d="M441.43 421.43C395.93 472.41 329.71 504.5 256 504.5 118.76 504.5 7.5 393.24 7.5 256c0-73.71 32.09-139.93 83.07-185.43C51.35 114.51 27.5 172.47 27.5 236c0 137.24 111.26 248.5 248.5 248.5 63.53 0 121.49-23.85 165.43-63.07z"
      opacity="1"
      data-original="#deecf1"
    ></path>
    <path
      fill="#50dd89"
      d="M450.352 213.125c-7.1-11.989-9.349-26.36-6.333-39.963a40.006 40.006 0 0 0 .888-10.765c-.793-15.615-10.533-28.696-23.936-34.574-11.383-4.992-21.138-12.94-29.275-22.335-7.703-8.895-18.579-14.908-30.756-16.352 0 0-5.051 3.589-7.855 3.736-26.614 1.395-47.466 20.096-46.072 46.71 1.395 26.614 52.666 82.899 53.594 100.609 1.428 27.246 25.19 48.025 52.616 45.527 17.208-1.567 29.885-16.045 37.095-30.804 2.164-4.43 6.264-10.474 6.264-10.474.29-2.047.449-4.133.469-6.246.085-9.21-2.377-17.771-6.699-25.069zM98.424 344.592c9.074 10.574 13.785 24.336 13.176 38.257a40.014 40.014 0 0 0 .995 10.756c3.492 15.24 15.356 26.431 29.576 29.892 12.077 2.939 23.064 9.073 32.708 16.913 11.153 9.066 23.222 12.076 38.312 8.592 25.968-5.995 42.159-27.906 36.164-53.874s-66.261-72.494-70.251-89.775c-6.137-26.584-33.147-42.922-59.722-35.699-23.719 6.446-38.957 30.17-34.91 54.414 1.517 9.085 8.429 14.088 13.952 20.524z"
      opacity="1"
      data-original="#50dd89"
    ></path>
    <path
      fill="#38c674"
      d="M232.99 443.26c-5.58 4.6-12.28 8-19.8 9.74-15.09 3.49-30.16-.52-41.31-9.59-9.65-7.84-20.63-13.97-32.71-16.91-14.22-3.46-26.08-14.66-29.58-29.9-.83-3.61-1.14-7.22-.99-10.75.61-13.92-4.1-27.68-13.18-38.26-5.52-6.43-9.43-14.44-10.95-23.52-4.04-24.25 11.19-47.97 34.91-54.42 1.04-.28 2.09-.53 3.13-.75-12.93 10.68-19.94 27.79-17.04 45.17 1.52 9.08 5.43 17.09 10.95 23.52 9.08 10.58 13.79 24.34 13.18 38.26-.15 3.53.16 7.14.99 10.75 3.5 15.24 15.36 26.44 29.58 29.9 12.08 2.94 23.06 9.07 32.71 16.91 10.85 8.83 25.42 12.86 40.11 9.85z"
      opacity="1"
      data-original="#38c674"
    ></path>
    <circle cx="383" cy="175" r="25" fill="#38c674" opacity="1" data-original="#38c674"></circle>
    <path
      fill="#fef056"
      d="M200 180c0 35.899-29.101 65-65 65s-61.064-29.846-61.064-65.745c0-16.085 3.555-29.502 13.234-40.851 4.202-4.928 7.48-9.78 12.965-13.272C110.21 118.717 122.171 115 135 115c35.899 0 65 29.101 65 65z"
      opacity="1"
      data-original="#fef056"
    ></path>
    <path
      fill="#fedf30"
      d="M189.86 214.86C178.34 232.98 158.07 245 135 245c-35.9 0-65-29.1-65-65 0-23.07 12.015-43.348 30.135-54.868C93.715 135.202 90 147.17 90 160c0 35.9 29.1 65 65 65 12.83 0 24.79-3.72 34.86-10.14z"
      opacity="1"
      data-original="#fedf30"
    ></path>
    <circle cx="234" cy="430" r="30" fill="#fef056" opacity="1" data-original="#fef056"></circle>
    <path
      fill="#38c674"
      d="M456.583 244.44c-3.08 21.76-20.993 39.24-43.363 41.28-27.42 2.5-51.18-18.28-52.61-45.53-.93-17.71-52.2-73.99-53.6-100.61-1.39-26.61 19.05-49.32 45.67-50.71 2.8-.15 5.56-.054 8.26.266 19.73 21.87 25.78 44.964 30.79 64.084 5.1 19.48 9.13 34.87 25.22 48.68 17.03 14.62 30.183 28.7 39.633 42.54z"
      opacity="1"
      data-original="#38c674"
    ></path>
    <path
      fill="#2cb764"
      d="M404.54 187.69C400.2 195.06 392.18 200 383 200c-13.81 0-25-11.19-25-25s11.19-25 25-25c2.89 0 5.67.49 8.26 1.4.15.61.31 1.22.47 1.82 3.42 13.08 6.37 24.32 12.81 34.47z"
      opacity="1"
      data-original="#2cb764"
    ></path>
    <path
      fill="#e07e5f"
      d="M403.926 217.075c-42.859-36.778-19.925-83.394-67.802-124.198-35.103-29.917-98.763-30.352-146.586-4.609 0 0-4.857 3.561-7.475 5.2-8.698 5.446-14.543 11.857-21.617 19.149-40.037 41.27-27.298 94.887 33.674 158.298 47.654 49.559 65.881 67.322 94.437 90.322 38.872 31.31 92.299 19.92 128.4-5.598 4.578-3.236 13.296-6.515 13.296-6.515 5.329-5.112 10.011-10.683 13.879-16.607 21.563-33.024 13.223-69.594-40.206-115.442z"
      opacity="1"
      data-original="#e07e5f"
    ></path>
    <path
      fill="#ce6857"
      d="M430.253 349.123c-34.99 33.57-97.893 47.397-141.693 12.117-28.56-23-53.04-42.19-100.69-91.75-41.68-43.35-59.18-81.72-53.28-114.85h-.01c2.73-15.33 10.46-29.53 23.12-42.59 9.2-9.49 20.039-17.432 31.839-23.782a114.105 114.105 0 0 0-3.839 3.782c-13.814 14.237-21.769 29.851-23.747 46.791-.393 3.366 2.582 6.163 5.908 5.513 9.049-1.767 18.069-2.685 26.879-2.685 14.61 0 28.32 2.47 40.72 7.34 35.95 14.12 52.01 38.21 64.91 57.57 11.17 16.76 19.99 30 39.7 37.82 35.62 14.13 60.03 30.5 74.61 50.05 12.18 16.341 17.383 34.674 15.573 54.674z"
      opacity="1"
      data-original="#ce6857"
    ></path>
    <g fill="#ce6857">
      <path
        d="M197.449 234.083c-4.142-7.174-1.684-16.348 5.49-20.49l109.232-63.659c7.174-4.142 16.348-1.684 20.49 5.49s1.684 16.348-5.49 20.49l-109.232 63.659c-7.174 4.143-16.348 1.685-20.49-5.49zM269.014 272.317c-4.142-7.174-1.684-16.348 5.49-20.49l60.622-35c7.174-4.142 16.348-1.684 20.49 5.49s1.684 16.348-5.49 20.49l-60.622 35c-7.174 4.143-16.348 1.685-20.49-5.49zM169.225 170.967c-4.142-7.174-1.684-16.348 5.49-20.49l60.622-35c7.174-4.142 16.348-1.684 20.49 5.49s1.684 16.348-5.49 20.49l-60.622 35c-7.174 4.143-16.348 1.684-20.49-5.49zM305.349 330.94c-4.142-7.174-1.684-16.348 5.49-20.49l77.942-45c7.174-4.142 16.348-1.684 20.49 5.49s1.684 16.348-5.49 20.49l-77.942 45c-7.174 4.143-16.348 1.685-20.49-5.49z"
        fill="#ce6857"
        opacity="1"
        data-original="#ce6857"
      ></path>
    </g>
    <g fill="#c45b51">
      <path
        d="m236.52 149.44-46.8 27.02c-7.18 4.14-16.35 1.68-20.5-5.49-4.14-7.18-1.68-16.35 5.5-20.49l15.09-8.71c1.65-.07 3.29-.1 4.93-.1 14.61 0 28.32 2.47 40.72 7.34.36.14.71.28 1.06.43zM408.55 287.06a14.761 14.761 0 0 1-4.77 4.37l-77.94 45c-7.17 4.14-16.35 1.68-20.49-5.49s-1.68-16.35 5.49-20.49l74.49-43.01c9.16 6.15 16.88 12.68 23.22 19.62zM293.03 195.81l-75.09 43.76c-7.17 4.15-16.35 1.69-20.49-5.49-4.14-7.17-1.68-16.34 5.49-20.49l70.31-40.98c8.04 7.52 14.34 15.5 19.78 23.2zM344.37 246.14l-54.87 31.67c-7.17 4.14-16.34 1.68-20.49-5.49-4.14-7.18-1.68-16.35 5.49-20.49l41.58-24c6.27 6.84 13.62 12.46 23.99 16.57 1.45.58 2.89 1.16 4.3 1.74z"
        fill="#c45b51"
        opacity="1"
        data-original="#c45b51"
      ></path>
    </g>
    <path
      fill="#e07e5f"
      d="M332.693 262.988c-52.498-20.821-45.99-72.364-104.543-95.357-38.28-15.032-90.396-.509-127.353 31.108 0 0-4.866 5.303-7.563 7.985-11 10.942-16.746 23.042-23.234 36.872-24.42 52.056.365 92.636 78.66 132.741 61.192 31.345 88.251 41.702 122.739 54.152 41.6 15.018 83.362 3.367 110.559-25.787 1.773-1.901 5.381-5.363 5.381-5.363 10.035-12.235 17.381-26.113 20.953-40.29 9.637-38.243-10.155-70.106-75.599-96.061z"
      opacity="1"
      data-original="#e07e5f"
    ></path>
    <path
      fill="#ce6857"
      d="M387.339 399.339c-26.72 32.57-72.489 53.511-116.799 37.521-34.48-12.45-63.87-22.62-125.07-53.97-78.29-40.1-104.2-86.99-79.78-139.05 8.12-17.31 20.52-32.68 35.34-45.3-7.34 8.65-13.57 18.14-18.34 28.3-24.42 52.06 1.49 98.95 79.78 139.05 61.2 31.35 90.59 41.52 125.07 53.97 35.96 12.98 72.879 1.629 99.799-20.521z"
      opacity="1"
      data-original="#ce6857"
    ></path>
    <g fill="#ce6857">
      <path
        d="M143.002 346.292c-6.252-5.435-6.915-14.909-1.48-21.162l82.555-95.753c5.435-6.252 14.909-6.915 21.162-1.48 6.252 5.435 6.915 14.909 1.48 21.162l-82.555 95.753c-5.435 6.252-14.91 6.915-21.162 1.48zM243.005 336.255c-6.252-5.435-6.915-14.909-1.48-21.162l26.035-29.941c5.435-6.252 14.909-6.915 21.162-1.48 6.252 5.435 6.915 14.909 1.48 21.162l-26.035 29.941c-5.435 6.252-14.91 6.914-21.162 1.48zM103.332 287.17c-6.252-5.435-6.915-14.909-1.48-21.162l45.924-52.83c5.435-6.252 14.909-6.915 21.162-1.48s6.915 14.909 1.48 21.162l-45.924 52.83c-5.436 6.252-14.91 6.915-21.162 1.48zM276.557 402.743c-6.252-5.435-6.915-14.909-1.48-21.162l59.045-67.924c5.435-6.252 14.909-6.915 21.162-1.48 6.252 5.435 6.915 14.909 1.48 21.162l-59.045 67.924c-5.435 6.253-14.909 6.915-21.162 1.48z"
        fill="#ce6857"
        opacity="1"
        data-original="#ce6857"
      ></path>
    </g>
    <path
      d="M437.02 74.98C388.667 26.629 324.38 0 256 0 196.732 0 138.947 20.723 93.29 58.352 48.246 95.475 16.987 147.224 5.272 204.066a7.5 7.5 0 0 0 5.832 8.859 7.498 7.498 0 0 0 8.859-5.832C42.903 95.787 142.17 15 256 15c132.888 0 241 108.112 241 241S388.888 497 256 497 15 388.888 15 256c0-5.083.16-10.216.475-15.257a7.5 7.5 0 0 0-7.017-7.954c-4.133-.263-7.695 2.883-7.954 7.017C.169 245.158 0 250.606 0 256c0 68.38 26.629 132.667 74.98 181.02C123.333 485.371 187.62 512 256 512s132.667-26.629 181.02-74.98C485.371 388.667 512 324.38 512 256s-26.629-132.667-74.98-181.02z"
      fill="#000000"
      opacity="1"
      data-original="#000000"
    ></path>
    <path
      d="M60.545 321.556c7.556 13.293 19.055 26.089 34.358 38.288a47.585 47.585 0 0 1 6.204 25.677 47.46 47.46 0 0 0 1.177 12.76c4.035 17.61 17.49 31.214 35.113 35.504 10.184 2.479 20.194 7.675 29.752 15.445 10.098 8.208 22.413 12.53 35.065 12.53 3.45 0 6.924-.34 10.386-.992A37.283 37.283 0 0 0 234 467.5c15.393 0 29.049-9.583 34.713-23.349 10.841 3.825 21.99 5.743 33.24 5.743 15.583 0 31.353-3.657 46.73-10.935a7.502 7.502 0 0 0-6.417-13.559c-16.417 8.504-46.439 14.437-73.673 2.778-33.057-11.916-61.607-22.207-119.699-51.963-37.467-19.192-62.805-40.076-75.308-62.073-12.013-21.134-12.374-43.087-1.103-67.113 12.72-27.115 37.566-50.825 68.168-65.05 30.127-14.004 61.02-16.69 84.758-7.368 27.908 10.959 39.647 28.574 52.076 47.223 12.171 18.262 24.756 37.145 52.443 48.125 75.851 30.083 76.9 64.207 71.092 87.257-4.552 18.065-15.795 35.852-31.658 50.084a7.5 7.5 0 0 0 10.017 11.165c14.837-13.312 26.148-29.492 32.641-46.446 16.043-9.27 29.298-21.475 38.392-35.403 14.358-21.989 16.119-44.741 5.154-68.687 5.79-8.879 8.889-19.054 8.986-29.666.093-10.229-2.585-20.244-7.746-28.959-6.155-10.393-8.095-22.652-5.464-34.518a47.534 47.534 0 0 0 1.056-12.769c-.916-18.043-11.803-33.777-28.414-41.062-9.598-4.209-18.554-11.064-26.618-20.376-11.352-13.108-27.778-20.099-45.081-19.2a55.687 55.687 0 0 0-14.955 2.862c-12.464-9.493-28.255-16.242-46.003-19.594-4.072-.769-7.993 1.908-8.762 5.978s1.907 7.993 5.978 8.762c16.968 3.205 31.739 9.844 42.717 19.2 22.819 19.448 28.185 39.925 33.865 61.604 5.562 21.229 11.314 43.182 33.917 62.578 61.924 53.138 51.807 85.744 38.811 105.648-5.228 8.007-12.115 15.379-20.293 21.811 2.227-18.467-2.468-35.046-14.199-49.892l4.171-2.408a22.35 22.35 0 0 0 10.483-13.662c1.556-5.806.757-11.869-2.248-17.074s-7.857-8.928-13.663-10.483a22.36 22.36 0 0 0-17.073 2.248l-19.362 11.178c-7.848-4.367-16.591-8.53-26.222-12.5l14.429-8.33c10.744-6.203 14.438-19.991 8.235-30.735-6.203-10.745-19.991-14.438-30.735-8.235l-31.111 17.962c-3.605-4.741-6.925-9.717-10.299-14.779a880.155 880.155 0 0 0-3.487-5.205l44.442-25.9c10.745-6.203 14.439-19.991 8.235-30.736s-19.993-14.439-30.762-8.22l-52.755 30.745c-6.737-4.975-14.613-9.49-24.043-13.262l22.49-12.985c10.745-6.203 14.439-19.991 8.236-30.735-3.005-5.205-7.857-8.928-13.662-10.483s-11.869-.758-17.074 2.248l-60.622 35c-5.609 3.239-9.481 8.75-10.776 14.936a157.55 157.55 0 0 0-19.206 6.542c.466-17.55 7.753-33.397 22.104-48.189 22.22-22.904 56.802-37.808 92.509-39.869a7.499 7.499 0 0 0 7.055-7.919c-.238-4.135-3.778-7.303-7.919-7.055-39.359 2.271-77.644 18.869-102.411 44.399-.731.753-1.442 1.511-2.142 2.273a72.836 72.836 0 0 0-15.18-1.598c-39.977 0-72.5 32.523-72.5 72.5 0 13.341 3.594 26.19 10.43 37.475-5.526 7.369-10.252 15.136-14.027 23.185-13.301 28.353-12.749 55.57 1.644 80.891zM234 452.5c-12.407 0-22.5-10.093-22.5-22.5 0-2.461.409-4.87 1.177-7.159 15.522 6.514 28.802 11.471 41.908 16.227-3.534 7.948-11.561 13.432-20.585 13.432zm-35.127-35.613A37.428 37.428 0 0 0 196.5 430a37.264 37.264 0 0 0 3.939 16.702c-8.609-.385-16.927-3.502-23.828-9.112-11.3-9.186-23.3-15.37-35.666-18.38-12.069-2.938-21.281-12.242-24.042-24.292a32.506 32.506 0 0 1-.81-8.742 62.938 62.938 0 0 0-.587-11.724c8.122 5.165 16.969 10.207 26.549 15.114 22.562 11.558 40.928 20.288 56.818 27.321zm192.704-226.625c-5.647-10.305-8.623-21.221-11.583-32.504a17.701 17.701 0 0 1 3.006-.257c9.649 0 17.5 7.851 17.5 17.5 0 6.496-3.504 12.237-8.923 15.261zm17.234 21.121a78.286 78.286 0 0 1-8.703-8.719c9.395-5.774 15.392-16.08 15.392-27.665 0-17.92-14.58-32.5-32.5-32.5-2.343 0-4.677.27-6.957.769-4.516-15.246-11.049-31.337-25.271-46.719a40.776 40.776 0 0 1 2.299-.192c12.637-.658 24.655 4.455 32.957 14.04 9.534 11.009 20.278 19.183 31.932 24.294 11.376 4.989 18.832 15.75 19.458 28.098a32.53 32.53 0 0 1-.72 8.749c-3.459 15.599-.901 31.725 7.202 45.408 3.767 6.362 5.722 13.686 5.654 21.18a39.976 39.976 0 0 1-2.763 14.278c-8.903-13.272-21.551-26.922-37.98-41.021zm-16.279 60.562a7.446 7.446 0 0 1 5.691-.749c1.935.519 3.553 1.759 4.554 3.494s1.268 3.756.749 5.691-1.76 3.552-3.495 4.554l-7.236 4.178c-3.792-3.438-8.015-6.772-12.667-10.007zm-53.656-48.623a7.441 7.441 0 0 1 5.691-.749c1.935.518 3.553 1.759 4.554 3.494s1.268 3.756.749 5.691a7.446 7.446 0 0 1-3.494 4.554l-23.338 13.474c-4.81-2.989-8.976-6.349-12.711-9.981zm-22.955-66.893c3.582-2.068 8.177-.836 10.245 2.745 2.068 3.582.836 8.178-2.771 10.261l-45.712 26.641c-3.037-3.9-6.343-7.764-10.054-11.502zm-76.834-34.457a7.443 7.443 0 0 1 5.691-.749 7.454 7.454 0 0 1 4.554 3.495c2.067 3.582.836 8.177-2.746 10.245l-35.413 20.446c-9.229-1.42-18.97-1.612-28.976-.591zM77.5 180c0-31.706 25.794-57.5 57.5-57.5 1.521 0 3.037.066 4.546.184-9.995 15.32-14.498 31.989-13.424 49.791-16.267 8.663-30.837 19.831-42.844 32.671C79.483 197.365 77.5 188.82 77.5 180z"
      fill="#000000"
      opacity="1"
      data-original="#000000"
    ></path>
    <path
      d="M217.687 282.732a7.5 7.5 0 0 0-10.578.783l-48.606 56.377a7.451 7.451 0 0 1-5.137 2.561 7.433 7.433 0 0 1-5.444-1.822c-1.512-1.314-2.421-3.138-2.561-5.137s.507-3.932 1.841-5.467l82.535-95.73a7.451 7.451 0 0 1 5.137-2.561 7.452 7.452 0 0 1 5.444 1.822c1.512 1.314 2.421 3.138 2.561 5.137s-.507 3.932-1.841 5.467l-11.066 12.835a7.5 7.5 0 0 0 11.361 9.795l11.046-12.812a22.35 22.35 0 0 0 5.464-16.331 22.347 22.347 0 0 0-7.684-15.411 22.351 22.351 0 0 0-16.331-5.464c-5.996.419-11.469 3.148-15.431 7.707l-82.535 95.73a22.349 22.349 0 0 0-5.464 16.331c.419 5.996 3.001 11.644 7.684 15.411 8.679 6.983 23.468 7.595 31.762-2.242l48.626-56.4a7.501 7.501 0 0 0-.783-10.579zM238.085 341.915c8.867 7.562 23.469 7.589 31.742-2.218l26.036-29.942c8.139-9.364 7.143-23.603-2.22-31.742-9.362-8.139-23.602-7.144-31.742 2.219l-26.036 29.942c-8.139 9.363-7.143 23.602 2.22 31.741zm9.1-21.901 26.036-29.941a7.485 7.485 0 0 1 5.666-2.576c1.745 0 3.498.604 4.916 1.836 3.121 2.713 3.453 7.46.741 10.58l-26.036 29.942a7.451 7.451 0 0 1-5.137 2.561 7.42 7.42 0 0 1-5.444-1.821 7.45 7.45 0 0 1-2.561-5.137 7.447 7.447 0 0 1 1.819-5.444zM173.858 206.039c-9.363-8.14-23.603-7.144-31.742 2.219l-45.924 52.83a22.349 22.349 0 0 0-5.464 16.331 22.347 22.347 0 0 0 7.684 15.411 22.398 22.398 0 0 0 14.747 5.509c6.292 0 12.553-2.618 16.996-7.729l45.925-52.83c8.137-9.363 7.141-23.603-2.222-31.741zm-9.101 21.901-45.924 52.83c-2.714 3.122-7.461 3.452-10.581.74a7.45 7.45 0 0 1-2.561-5.137 7.449 7.449 0 0 1 1.821-5.443l45.924-52.83a7.485 7.485 0 0 1 5.666-2.576c1.745 0 3.498.604 4.916 1.836 3.12 2.712 3.452 7.459.739 10.58zM367.889 321.929a22.347 22.347 0 0 0-7.684-15.411c-9.363-8.14-23.603-7.144-31.742 2.219l-59.045 67.924c-3.943 4.536-5.884 10.336-5.464 16.331s3.021 11.62 7.684 15.411c8.7 7.073 23.469 7.59 31.742-2.219l59.045-67.924a22.356 22.356 0 0 0 5.464-16.331zm-16.785 6.49-59.045 67.924a7.451 7.451 0 0 1-5.137 2.561 7.429 7.429 0 0 1-5.443-1.821c-3.121-2.713-3.453-7.46-.74-10.581l59.045-67.924a7.484 7.484 0 0 1 5.665-2.576c1.746 0 3.499.604 4.916 1.836 1.512 1.314 2.421 3.138 2.561 5.137s-.508 3.932-1.822 5.444zM210.027 194.754a7.5 7.5 0 0 0-7.5-7.5h-.01c-4.142 0-7.495 3.358-7.495 7.5s3.363 7.5 7.505 7.5 7.5-3.358 7.5-7.5zM354.517 377.254c-4.142 0-7.495 3.358-7.495 7.5s3.363 7.5 7.505 7.5a7.5 7.5 0 0 0 0-15zM374.527 369.254a7.5 7.5 0 0 0 0-15h-.01c-4.142 0-7.495 3.358-7.495 7.5s3.363 7.5 7.505 7.5zM315.527 124.254a7.5 7.5 0 0 0 0-15h-.01c-4.142 0-7.495 3.358-7.495 7.5s3.363 7.5 7.505 7.5zM294.027 107.754a7.5 7.5 0 0 0-7.5-7.5h-.01c-4.142 0-7.495 3.358-7.495 7.5s3.363 7.5 7.505 7.5 7.5-3.358 7.5-7.5zM226.326 375.193a7.5 7.5 0 0 0 0-15h-.01c-4.142 0-7.495 3.358-7.495 7.5s3.363 7.5 7.505 7.5zM208.326 337.275c-4.142 0-7.495 3.358-7.495 7.5s3.363 7.5 7.505 7.5a7.5 7.5 0 0 0 0-15zM192.318 361.337c-4.142 0-7.495 3.358-7.495 7.5s3.363 7.5 7.505 7.5a7.5 7.5 0 0 0 0-15z"
      fill="#000000"
      opacity="1"
      data-original="#000000"
    ></path>
  </g>
</svg>
